HIERARCHY
ROOT Hips
{
  OFFSET 0 0 0
  CHANNELS 6 Xposition Yposition Zposition Zrotation Yrotation Xrotation
  JOINT LeftThigh
  {
    OFFSET 8.409438 0 -5.917753
    CHANNELS 3 Zrotation Yrotation Xrotation
    JOINT LeftLeg
    {
      OFFSET 0 0 -42.358652
      CHANNELS 3 Zrotation Yrotation Xrotation
      JOINT LeftFoot
      {
        OFFSET 0 0 -39.357303
        CHANNELS 3 Zrotation Yrotation Xrotation
      }
    }
  }
  JOINT RightThigh
  {
    OFFSET -8.409438 0 -5.917753
    CHANNELS 3 Zrotation Yrotation Xrotation
    JOINT RightLeg
    {
      OFFSET 0 0 -42.358652
      CHANNELS 3 Zrotation Yrotation Xrotation
      JOINT RightFoot
      {
        OFFSET 0 0 -39.357303
        CHANNELS 3 Zrotation Yrotation Xrotation
      }
    }
  }
  JOINT SpineLow
  {
    OFFSET 0 0 4.719101
    CHANNELS 3 Zrotation Yrotation Xrotation
    JOINT SpineMid
    {
      OFFSET 0 0 12.899191
      CHANNELS 3 Zrotation Yrotation Xrotation
      JOINT Chest
      {
        OFFSET 0 0 12.899191
        CHANNELS 3 Zrotation Yrotation Xrotation
        JOINT LeftShoulder
        {
          OFFSET 7.550562 1.41573 9.438202
          CHANNELS 3 Zrotation Yrotation Xrotation
          JOINT LeftArm
          {
            OFFSET 9.155056 0 4.247191
            CHANNELS 3 Zrotation Yrotation Xrotation
            JOINT LeftForearm
            {
              OFFSET 0 0 25.771955
              CHANNELS 3 Zrotation Yrotation Xrotation
              JOINT LeftHand
              {
                OFFSET 0 0 25.197169
                CHANNELS 3 Zrotation Yrotation Xrotation
              }
            }
          }
        }
        JOINT RightShoulder
        {
          OFFSET -7.550562 1.41573 9.438202
          CHANNELS 3 Zrotation Yrotation Xrotation
          JOINT RightArm
          {
            OFFSET -9.155056 0 4.247191
            CHANNELS 3 Zrotation Yrotation Xrotation
            JOINT RightForearm
            {
              OFFSET 0 0 -25.771955
              CHANNELS 3 Zrotation Yrotation Xrotation
              JOINT RightHand
              {
                OFFSET 0 0 -25.197169
                CHANNELS 3 Zrotation Yrotation Xrotation
              }
            }
          }
        }
        JOINT Neck
        {
          OFFSET 0 0 15.101124
          CHANNELS 3 Zrotation Yrotation Xrotation
          JOINT Head
          {
            OFFSET 0 0 11.325843
            CHANNELS 3 Zrotation Yrotation Xrotation
            End Site
            {
              OFFSET 0 0 14.157303
            }
          }
        }
      }
    }
  }
}
MOTION
Frames: 10
Frame Time: 0.0
0.0  89.887642  0.0  14.936315  -61.574248  -119.777549  38.722252  -46.856027  -20.779368  12.192098  33.0852  65.919166  -2.509792  1.401069  0.851386  -18.6985  13.203005  -42.630947  38.004735  -0.896628  71.694225  15.522532  9.007518  -1.841951  2.425175  2.24845  1.922699  6.820276  5.941087  5.488963  6.820276  5.941088  5.488963  -16.951498  11.912357  9.563862  -72.781988  44.149763  -69.242624  -41.386526  11.329896  72.717453  66.45759  16.135869  12.133378  5.227063  1.222551  12.33003  113.864919  51.095745  21.610158  -4.251233  1.720555  -88.455993  92.164809  -23.001234  6.106096  9.611516  -5.36568  8.117745  7.276313  -3.898642  6.170252  
0.0  89.887642  0.0  14.874996  -61.226816  -119.983627  38.888451  -47.174126  -20.682775  12.000719  32.97292  65.698516  -2.649194  1.369126  0.759849  -19.275953  13.167824  -42.172664  38.580238  -1.079462  71.532213  15.50377  8.876375  -1.936434  2.414333  2.271716  1.981177  6.798007  5.99935  5.65069  6.798007  5.999351  5.65069  -17.097486  11.888155  9.86921  -73.440209  43.868443  -69.945923  -41.50527  11.833981  72.635798  66.483713  16.211406  11.617956  4.767526  1.412921  12.333227  113.941375  51.026373  21.525288  -4.567754  1.727677  -88.107419  91.802979  -22.899887  6.596176  9.639737  -5.34318  8.042093  7.296519  -3.882568  6.113476  
0.0  89.887642  0.0  14.792011  -60.923295  -120.147241  39.35084  -47.406082  -20.702944  11.506848  32.849292  65.332571  -2.850557  1.339139  0.61402  -18.929362  13.458294  -40.959776  38.018266  -0.563675  71.095213  15.426446  8.792676  -1.966782  2.421872  2.273316  2.014651  6.821767  5.999532  5.74315  6.821766  5.999532  5.74315  -17.19954  11.861615  10.268149  -74.271112  43.796972  -70.571459  -41.871211  12.56124  72.409499  66.377134  16.345634  11.036137  4.312181  1.617613  12.387922  114.513951  51.003656  21.884066  -5.215131  1.699725  -87.843157  91.300038  -22.913941  6.980507  9.557827  -5.288066  8.10582  7.235072  -3.841283  6.159724  
0.0  89.887642  0.0  14.758532  -60.726664  -120.321104  40.205728  -47.534872  -20.913341  10.667272  32.777895  64.800959  -3.005316  1.273515  0.524275  -19.308977  13.520825  -40.531003  37.842049  -0.545853  70.871889  15.272861  8.840963  -1.887507  2.440034  2.262823  2.012891  6.870286  5.969478  5.738735  6.870286  5.969478  5.738735  -17.210448  11.854158  10.701431  -75.142368  43.953668  -71.032023  -42.333404  13.180904  72.067573  66.383865  16.49171  10.651877  4.115726  1.872253  12.405734  115.004963  50.847782  22.22802  -6.029694  1.949328  -87.713365  90.631433  -23.0778  7.291351  9.534499  -5.213747  8.405058  7.219407  -3.781208  6.3828  
0.0  89.887642  0.0  14.77894  -60.584077  -120.458066  41.144127  -47.564194  -21.308648  9.575991  32.859637  64.067117  -2.871872  1.333641  0.634915  -19.729751  13.51877  -40.286791  37.485836  -0.297077  70.72394  15.116705  8.967549  -1.751694  2.455256  2.207014  1.946342  6.900688  5.822986  5.551534  6.900688  5.822986  5.551534  -17.060482  12.16559  11.27608  -76.123638  44.298556  -71.382754  -42.707903  13.301842  71.760499  66.62076  16.711979  10.647681  4.215848  2.329202  12.678076  115.275047  50.627728  22.645903  -7.114402  2.520748  -87.797889  90.002479  -23.365616  7.361315  9.502484  -5.045273  9.003098  7.198575  -3.646033  6.828519  
0.0  89.887642  0.0  14.865059  -60.454715  -120.59553  41.989662  -47.580431  -21.64852  8.825723  32.837955  63.672941  -2.923325  1.290001  0.625722  -20.123893  13.419143  -40.234756  37.174126  0.288204  70.854701  15.177046  9.077847  -1.728229  2.473621  2.130944  1.858029  6.936312  5.623349  5.302731  6.936312  5.623349  5.302731  -16.920323  12.596569  11.816019  -77.276972  44.734907  -71.78869  -42.771154  12.64964  71.630024  66.879209  16.963678  10.928513  4.528794  2.94621  13.002402  115.14535  50.483675  22.986959  -8.366014  3.419704  -88.134346  89.474353  -23.794877  7.275345  9.426784  -4.815254  9.704309  7.144657  -3.463839  7.350423  
0.0  89.887642  0.0  14.945485  -60.309563  -120.704737  42.343186  -47.614098  -21.801385  8.504933  32.750831  63.513054  -2.955006  1.271935  0.593252  -20.350627  13.251542  -40.31747  36.977044  1.039884  71.266461  15.460318  9.192127  -1.764269  2.48689  2.041912  1.762559  6.95685  5.389611  5.03247  6.95685  5.38961  5.032469  -16.619478  13.083278  12.387247  -78.669194  45.112153  -72.270466  -42.573455  11.547031  71.673526  67.155746  17.209321  11.271225  4.943365  3.673785  13.441058  114.916586  50.56404  23.353346  -9.724905  4.366768  -88.58972  89.370813  -24.328681  7.198789  9.327411  -4.543618  10.407313  7.07182  -3.25095  7.873013  
0.0  89.887642  0.0  15.02209  -60.128564  -120.812331  41.98418  -47.631304  -21.593854  8.645052  32.573804  63.537285  -2.952489  1.265446  0.52594  -20.407754  13.101432  -40.407124  37.042131  1.51742  71.719563  15.747556  9.199011  -1.758032  2.489614  1.958782  1.67813  6.950603  5.171633  4.792317  6.950603  5.171633  4.792317  -16.190937  13.52545  12.98931  -80.15654  45.322256  -72.852451  -42.279705  10.48676  71.889882  67.479609  17.496452  11.427195  5.3621  4.413248  13.933002  114.712074  50.897131  23.671364  -11.137694  5.290938  -89.216251  89.783447  -25.143358  7.261262  9.245446  -4.245937  11.01525  7.010247  -3.01984  8.324224  
0.0  89.887642  0.0  15.123537  -59.880498  -120.971717  40.916873  -47.585628  -20.963804  9.053891  32.36543  63.510144  -2.804241  1.279156  0.550003  -20.345461  13.083242  -40.336154  37.192201  1.493446  72.013606  15.938292  9.321337  -1.722526  2.463552  1.921913  1.661463  6.874955  5.07475  4.740616  6.874954  5.07475  4.740616  -15.673095  13.644262  13.293769  -81.67107  45.339586  -73.572749  -41.989593  9.8603  72.29967  67.74914  17.862861  11.258357  5.913341  4.921404  14.018984  114.175243  51.385624  23.727681  -12.53968  6.311679  -90.078727  90.617438  -26.287882  7.345309  9.290557  -3.966729  11.290731  7.041358  -2.805341  8.527363  
0.0  89.887642  0.0  15.117342  -59.476627  -121.05583  39.320299  -47.517238  -20.048294  9.673969  32.085098  63.50033  -2.658294  1.269306  0.591936  -20.063881  13.36226  -40.077927  37.142952  1.009803  72.121496  15.626015  9.442986  -1.690852  2.437677  1.912524  1.725925  6.808163  5.044316  4.913927  6.808163  5.044316  4.913927  -15.463516  13.540456  13.229738  -83.035557  45.241594  -74.288144  -41.896983  9.880488  72.865789  68.036707  18.404936  10.795607  6.204678  5.405363  13.648123  113.140113  52.133422  23.313176  -13.842847  7.463056  -91.251742  91.538728  -27.830031  7.488735  9.271534  -3.686045  11.226579  7.021844  -2.595984  8.475307  
